<svg xmlns="http://www.w3.org/2000/svg" width="85" height="57"><path d="m7.167 4.79.468.948 1.047.153-.757.738.177 1.042-.935-.49-.936.49.18-1.042-.76-.737L6.7 5.74m7.6-.95.468.948 1.047.153-.758.738.178 1.042-.936-.49-.936.49.178-1.042-.758-.737 1.047-.152m7.602-.95.467.948 1.046.153-.756.738.178 1.042-.936-.49-.937.49.178-1.042-.756-.737 1.046-.152m7.601-.95.47.948 1.046.153-.76.738.18 1.042-.937-.49-.936.49.18-1.042-.76-.737 1.05-.152m7.6-.95.47.948 1.044.153-.756.738.177 1.042-.934-.49-.936.49.178-1.042-.757-.737 1.05-.152M7.167 10.936l.468.948 1.047.153-.757.738.177 1.042-.935-.49-.936.49.18-1.042-.76-.738 1.048-.153m7.601-.948.468.948 1.047.153-.758.738.178 1.042-.936-.49-.936.49.178-1.042-.758-.738 1.047-.153m7.602-.948.467.948 1.046.153-.756.738.178 1.042-.936-.49-.937.49.178-1.042-.756-.738 1.046-.153m7.601-.948.47.948 1.046.153-.76.738.18 1.042-.937-.49-.936.49.18-1.042-.76-.738 1.05-.153m7.6-.948.47.948 1.044.153-.756.738.177 1.042-.934-.49-.936.49.178-1.042-.757-.738 1.05-.153M7.167 17.082l.468.948 1.047.152-.757.74.177 1.04-.935-.49-.936.49.18-1.04-.76-.74L6.7 18.03m7.6-.948.468.948 1.047.152-.758.74.178 1.04-.936-.49-.936.49.178-1.04-.758-.74 1.047-.152m7.602-.948.467.948 1.046.152-.756.74.178 1.04-.936-.49-.937.49.178-1.04-.756-.74 1.046-.152m7.601-.948.47.948 1.046.152-.76.74.18 1.04-.937-.49-.936.49.18-1.04-.76-.74 1.05-.152m7.6-.948.47.948 1.044.152-.756.74.177 1.04-.934-.49-.936.49.178-1.04-.757-.74 1.05-.152M7.167 23.228l.468.95 1.047.152-.757.737.177 1.042-.935-.49-.936.49.18-1.043-.76-.737 1.048-.153m7.601-.948.468.95 1.047.152-.758.737.178 1.042-.936-.49-.936.49.178-1.043-.758-.737 1.047-.153m7.602-.948.467.95 1.046.152-.756.737.178 1.042-.936-.49-.937.49.178-1.043-.756-.737 1.046-.153m7.601-.948.47.95 1.046.152-.76.737.18 1.042-.937-.49-.936.49.18-1.043-.76-.737 1.05-.153m7.6-.948.47.95 1.044.152-.756.737.177 1.042-.934-.49-.936.49.178-1.043-.757-.737 1.05-.153" fill="#FFF"/><path fill="#FFF" d="M-.13.154h85.26v56.692H-.13z"/><path fill="#34479E" d="M-.13.154h43.125v30.592H-.13z"/><path d="M42.994.154H85.13v4.49H42.995zm0 8.7H85.13v4.49H42.995zm0 8.7H85.13v4.49H42.995zm0 8.699H85.13v4.493H42.995zM-.13 34.955h85.26v4.492H-.13zm0 8.701h85.26v4.49H-.13zm0 8.699h85.26v4.49H-.13z" fill="#EA1D25"/><path d="M4.172 3.58 5.2 2.832H3.93l-.39-1.208-.393 1.208h-1.27l1.028.746-.393 1.205L3.54 4.04l1.025.745m6.751-1.205 1.026-.747h-1.268l-.392-1.208-.392 1.208H9.02l1.027.746-.392 1.205 1.027-.745 1.026.745M18.46 3.58l1.026-.747h-1.27l-.39-1.208-.393 1.208h-1.268l1.026.746-.39 1.205 1.025-.745 1.027.745m6.749-1.204 1.027-.747h-1.27l-.392-1.208-.39 1.208h-1.27l1.026.746-.392 1.205 1.026-.745 1.027.745m6.753-1.204 1.025-.747h-1.268l-.392-1.208-.393 1.208H30.45l1.025.746-.392 1.205 1.027-.745 1.026.745M39.89 3.58l1.026-.747h-1.27l-.392-1.208-.39 1.208h-1.27l1.027.746-.39 1.205 1.024-.745 1.028.745M7.745 6.64l1.026-.746H7.503L7.11 4.687l-.392 1.207H5.45l1.026.745-.392 1.206L7.11 7.1l1.027.746m6.75-1.206 1.028-.746h-1.27l-.392-1.207-.39 1.207h-1.27l1.027.745-.393 1.206 1.026-.746 1.027.746m6.752-1.205 1.025-.746H21.79l-.393-1.207-.393 1.207h-1.267l1.025.745-.39 1.206 1.025-.746 1.026.746m6.751-1.205 1.027-.746h-1.268l-.392-1.207-.392 1.207h-1.27l1.028.745-.392 1.206L28.54 7.1l1.027.746m6.751-1.206 1.026-.746h-1.268l-.392-1.207-.392 1.207h-1.27l1.027.745-.393 1.206 1.027-.746 1.025.746M4.172 9.702 5.2 8.956H3.93L3.54 7.75l-.393 1.206h-1.27l1.028.746-.393 1.206 1.027-.745 1.025.745m6.752-1.206 1.026-.746h-1.268l-.392-1.207-.392 1.206H9.02l1.027.746-.392 1.206 1.027-.745 1.026.745m6.752-1.205 1.026-.746h-1.27l-.39-1.207-.393 1.206h-1.268l1.026.746-.39 1.206 1.025-.745 1.027.745m6.749-1.205 1.027-.746h-1.27l-.392-1.207-.39 1.206h-1.27l1.026.746-.392 1.206 1.026-.745 1.027.745m6.753-1.205 1.025-.746h-1.268l-.392-1.207-.393 1.206H30.45l1.025.746-.392 1.206 1.027-.745 1.026.745m6.754-1.205 1.026-.746h-1.27l-.392-1.207-.39 1.206h-1.27l1.027.746-.39 1.206 1.024-.745 1.028.745M7.745 12.762l1.026-.745H7.503L7.11 10.81l-.392 1.207H5.45l1.026.745-.392 1.207 1.026-.747 1.027.746m6.75-1.206 1.028-.745h-1.27l-.392-1.207-.39 1.207h-1.27l1.027.745-.393 1.207 1.026-.747 1.027.746m6.752-1.206 1.025-.745H21.79l-.393-1.207-.393 1.207h-1.267l1.025.745-.39 1.207 1.025-.747 1.026.746m6.751-1.206 1.027-.745h-1.268l-.392-1.207-.392 1.207h-1.27l1.028.745-.392 1.207 1.026-.747 1.027.746m6.75-1.206 1.026-.745h-1.268l-.392-1.207-.392 1.207h-1.27l1.027.745-.393 1.207 1.027-.747 1.025.746M4.172 15.825 5.2 15.08H3.93l-.39-1.208-.393 1.207h-1.27l1.028.745-.393 1.206 1.027-.744 1.025.745m6.752-1.206 1.026-.746h-1.268l-.392-1.208-.392 1.207H9.02l1.027.745-.392 1.206 1.027-.744 1.026.745m6.752-1.205 1.026-.746h-1.27l-.39-1.208-.393 1.207h-1.268l1.026.745-.39 1.206 1.025-.744 1.027.745m6.749-1.205 1.027-.746h-1.27l-.392-1.208-.39 1.207h-1.27l1.026.745-.392 1.206 1.026-.744 1.027.745m6.753-1.205 1.025-.746h-1.268l-.392-1.208-.393 1.207H30.45l1.025.745-.392 1.206 1.027-.744 1.026.745m6.754-1.205 1.026-.746h-1.27l-.392-1.208-.39 1.207h-1.27l1.027.745-.39 1.206 1.024-.744 1.028.745M7.745 18.885l1.026-.745H7.503l-.392-1.207-.392 1.207H5.45l1.026.745-.392 1.207 1.026-.746 1.027.746m6.75-1.207 1.028-.745h-1.27l-.392-1.207-.39 1.207h-1.27l1.027.745-.393 1.207 1.026-.746 1.027.746m6.752-1.207 1.025-.745H21.79l-.393-1.207-.393 1.207h-1.267l1.025.745-.39 1.207 1.025-.746 1.026.746m6.751-1.207 1.027-.745h-1.268l-.392-1.207-.392 1.207h-1.27l1.028.745-.392 1.207 1.026-.746 1.027.746m6.75-1.207 1.026-.745h-1.268l-.392-1.207-.392 1.207h-1.27l1.027.745-.393 1.207 1.027-.746 1.025.746M4.172 21.948l1.028-.746H3.93l-.39-1.207-.393 1.207h-1.27l1.028.746-.393 1.206 1.027-.745 1.025.744m6.752-1.205 1.026-.746h-1.268l-.392-1.207-.392 1.207H9.02l1.027.746-.392 1.206 1.027-.745 1.026.744m6.752-1.205 1.026-.746h-1.27l-.39-1.207-.393 1.207h-1.268l1.026.746-.39 1.206 1.025-.745 1.027.744m6.749-1.205 1.027-.746h-1.27l-.392-1.207-.39 1.207h-1.27l1.026.746-.392 1.206 1.026-.745 1.027.744m6.753-1.205 1.025-.746h-1.268l-.392-1.207-.393 1.207H30.45l1.025.746-.392 1.206 1.027-.745 1.026.744m6.754-1.205 1.026-.746h-1.27l-.392-1.207-.39 1.207h-1.27l1.027.746-.39 1.206 1.024-.745 1.028.744M7.745 25.008l1.026-.745H7.503l-.392-1.207-.392 1.207H5.45l1.026.745-.392 1.207 1.026-.746 1.027.745m6.75-1.206 1.028-.745h-1.27l-.392-1.207-.39 1.207h-1.27l1.027.745-.393 1.207 1.026-.746 1.027.745m6.752-1.206 1.025-.745H21.79l-.393-1.207-.393 1.207h-1.267l1.025.745-.39 1.207 1.025-.746 1.026.745m6.751-1.206 1.027-.745h-1.268l-.392-1.207-.392 1.207h-1.27l1.028.745-.392 1.207 1.026-.746 1.027.745m6.75-1.206 1.026-.745h-1.268l-.392-1.207-.392 1.207h-1.27l1.027.745-.393 1.207 1.027-.746 1.025.745M4.172 28.07l1.028-.745H3.93l-.39-1.207-.393 1.207h-1.27l1.028.746-.393 1.207 1.027-.745 1.025.745m6.752-1.208 1.026-.745h-1.268l-.392-1.207-.392 1.207H9.02l1.027.746-.392 1.207 1.027-.745 1.026.745m6.752-1.208 1.026-.745h-1.27l-.39-1.207-.393 1.207h-1.268l1.026.746-.39 1.207 1.025-.745 1.027.745m6.749-1.208 1.027-.745h-1.27l-.392-1.207-.39 1.207h-1.27l1.026.746-.392 1.207 1.026-.745 1.027.745m6.753-1.208 1.025-.745h-1.268l-.392-1.207-.393 1.207H30.45l1.025.746-.392 1.207 1.027-.745 1.026.745m6.754-1.208 1.026-.745h-1.27l-.392-1.207-.39 1.207h-1.27l1.027.746-.39 1.207 1.024-.745 1.028.745" fill="#FFF"/></svg>
